<svg width="20" height="20" viewBox="0 0 20 20" fill="none" xmlns="http://www.w3.org/2000/svg">
<path d="M17.932 9.38281H17.6282V6.68046C17.627 6.33733 17.4901 6.00863 17.2475 5.766C17.0048 5.52338 16.6761 5.38651 16.333 5.38525H15.8293V5.08143C15.8293 4.73686 15.6924 4.4064 15.4488 4.16276C15.2051 3.91911 14.8747 3.78223 14.5301 3.78223C14.1855 3.78223 13.8551 3.91911 13.6114 4.16276C13.3678 4.4064 13.2309 4.73686 13.2309 5.08143V9.38281H7.54638V5.08143C7.54638 4.73686 7.4095 4.4064 7.16585 4.16276C6.9222 3.91911 6.59174 3.78223 6.24717 3.78223C5.9026 3.78223 5.57214 3.91911 5.3285 4.16276C5.08485 4.4064 4.94797 4.73686 4.94797 5.08143V5.38525H4.44427C4.10076 5.38525 3.77132 5.52171 3.52842 5.76461C3.28552 6.0075 3.14907 6.33695 3.14907 6.68046V9.38281H2.84525C2.73923 9.38281 2.63755 9.42492 2.56258 9.49989C2.48761 9.57486 2.4455 9.67654 2.4455 9.78256C2.4455 9.88858 2.48761 9.99026 2.56258 10.0652C2.63755 10.1402 2.73923 10.1823 2.84525 10.1823H3.14907V12.8767C3.14801 13.0474 3.18074 13.2167 3.24535 13.3748C3.30997 13.5329 3.40521 13.6766 3.52559 13.7977C3.64596 13.9188 3.7891 14.0149 3.94677 14.0805C4.10443 14.1461 4.27351 14.1799 4.44427 14.1799H4.95196V14.4757C4.95196 14.8203 5.08885 15.1507 5.33249 15.3944C5.57614 15.638 5.9066 15.7749 6.25117 15.7749C6.59574 15.7749 6.9262 15.638 7.16985 15.3944C7.4135 15.1507 7.55038 14.8203 7.55038 14.4757V10.1823H13.2349V14.4757C13.2349 14.8203 13.3718 15.1507 13.6154 15.3944C13.8591 15.638 14.1895 15.7749 14.5341 15.7749C14.8787 15.7749 15.2091 15.638 15.4528 15.3944C15.6964 15.1507 15.8333 14.8203 15.8333 14.4757V14.1799H16.337C16.6813 14.1778 17.0107 14.0395 17.2534 13.7954C17.496 13.5512 17.6322 13.2209 17.6322 12.8767V10.1823H17.936C18.0421 10.1823 18.1437 10.1402 18.2187 10.0652C18.2937 9.99026 18.3358 9.88858 18.3358 9.78256C18.3358 9.67654 18.2937 9.57486 18.2187 9.49989C18.1437 9.42492 18.0421 9.38281 17.936 9.38281H17.932ZM4.95196 13.3804H4.44827C4.38265 13.3798 4.31777 13.3664 4.25735 13.3408C4.19692 13.3152 4.14213 13.278 4.0961 13.2312C4.05007 13.1844 4.0137 13.129 3.98908 13.0682C3.96445 13.0074 3.95205 12.9423 3.95258 12.8767V6.68046C3.95321 6.54918 4.00563 6.42347 4.09846 6.33064C4.19128 6.23782 4.317 6.18539 4.44827 6.18476H4.95196V13.3804ZM6.75087 14.4757C6.75003 14.609 6.69669 14.7367 6.60241 14.8309C6.50813 14.9252 6.3805 14.9786 6.24717 14.9794C6.18155 14.9789 6.11668 14.9654 6.05625 14.9398C5.99582 14.9142 5.94103 14.877 5.895 14.8302C5.84897 14.7834 5.81261 14.7281 5.78798 14.6672C5.76335 14.6064 5.75095 14.5413 5.75148 14.4757V5.08143C5.75211 4.95016 5.80453 4.82444 5.89736 4.73162C5.99018 4.63879 6.1159 4.58637 6.24717 4.58574C6.37939 4.58572 6.50631 4.63769 6.60054 4.73043C6.69477 4.82316 6.74877 4.94924 6.75087 5.08143V14.4757ZM15.0338 14.4757C15.0338 14.6082 14.9812 14.7353 14.8874 14.829C14.7937 14.9227 14.6666 14.9754 14.5341 14.9754C14.4016 14.9754 14.2745 14.9227 14.1808 14.829C14.0871 14.7353 14.0344 14.6082 14.0344 14.4757V5.08143C14.0344 4.94891 14.0871 4.82181 14.1808 4.7281C14.2745 4.63438 14.4016 4.58174 14.5341 4.58174C14.6666 4.58174 14.7937 4.63438 14.8874 4.7281C14.9812 4.82181 15.0338 4.94891 15.0338 5.08143V14.4757ZM16.8327 12.8767C16.8332 12.9423 16.8208 13.0074 16.7962 13.0682C16.7716 13.129 16.7352 13.1844 16.6892 13.2312C16.6432 13.278 16.5884 13.3152 16.5279 13.3408C16.4675 13.3664 16.4026 13.3798 16.337 13.3804H15.8333V6.18476H16.337C16.4683 6.18539 16.594 6.23782 16.6868 6.33064C16.7796 6.42347 16.8321 6.54918 16.8327 6.68046V12.8767Z" fill="#24CF78"/>
</svg>
