<svg width="64" height="64" viewBox="0 0 64 64" fill="none" xmlns="http://www.w3.org/2000/svg">
<path d="M58 12.0002C58.8333 12.0002 59.6146 12.1564 60.3438 12.4689C61.0729 12.7814 61.7083 13.2085 62.25 13.7502C62.7917 14.2918 63.2188 14.9272 63.5312 15.6564C63.8438 16.3856 64 17.1668 64 18.0002V54.0002C64 54.8335 63.8438 55.6147 63.5312 56.3439C63.2188 57.0731 62.7917 57.7085 62.25 58.2502C61.7083 58.7918 61.0729 59.2189 60.3438 59.5314C59.6146 59.8439 58.8333 60.0002 58 60.0002H6C5.16667 60.0002 4.38542 59.8439 3.65625 59.5314C2.92708 59.2189 2.29167 58.7918 1.75 58.2502C1.20833 57.7085 0.78125 57.0731 0.46875 56.3439C0.15625 55.6147 0 54.8335 0 54.0002V18.0002C0 17.1668 0.15625 16.3856 0.46875 15.6564C0.78125 14.9272 1.20833 14.2918 1.75 13.7502C2.29167 13.2085 2.92708 12.7814 3.65625 12.4689C4.38542 12.1564 5.16667 12.0002 6 12.0002H20V8.00016C20 7.43766 20.1042 6.91683 20.3125 6.43766C20.5208 5.9585 20.8021 5.54183 21.1562 5.18766C21.5104 4.8335 21.9375 4.54183 22.4375 4.31266C22.9375 4.0835 23.4583 3.97933 24 4.00016H40C40.5625 4.00016 41.0833 4.10433 41.5625 4.31266C42.0417 4.521 42.4583 4.80225 42.8125 5.15641C43.1667 5.51058 43.4583 5.93766 43.6875 6.43766C43.9167 6.93766 44.0208 7.4585 44 8.00016V12.0002H58ZM24 12.0002H40V8.00016H24V12.0002ZM16 16.0002V56.0002H48V16.0002H16ZM4 54.0002C4 54.5418 4.19792 55.0106 4.59375 55.4064C4.98958 55.8022 5.45833 56.0002 6 56.0002H12V16.0002H6C5.45833 16.0002 4.98958 16.1981 4.59375 16.5939C4.19792 16.9897 4 17.4585 4 18.0002V54.0002ZM60 18.0002C60 17.4585 59.8021 16.9897 59.4062 16.5939C59.0104 16.1981 58.5417 16.0002 58 16.0002H52V56.0002H58C58.5417 56.0002 59.0104 55.8022 59.4062 55.4064C59.8021 55.0106 60 54.5418 60 54.0002V18.0002Z" fill="#313131"/>
</svg>
