<svg width="20" height="20" viewBox="0 0 20 20" fill="none" xmlns="http://www.w3.org/2000/svg">
<g clip-path="url(#clip0_503_999)">
<path d="M17.3909 3.59802C17.6408 3.59802 17.8751 3.64487 18.0937 3.73857C18.3123 3.83227 18.5029 3.96033 18.6653 4.12274C18.8277 4.28516 18.9557 4.47568 19.0494 4.69432C19.1432 4.91296 19.19 5.14721 19.19 5.39708V16.1915C19.19 16.4413 19.1432 16.6756 19.0494 16.8942C18.9557 17.1129 18.8277 17.3034 18.6653 17.4658C18.5029 17.6282 18.3123 17.7563 18.0937 17.85C17.8751 17.9437 17.6408 17.9905 17.3909 17.9905H1.79906C1.54919 17.9905 1.31494 17.9437 1.0963 17.85C0.877668 17.7563 0.687142 17.6282 0.524727 17.4658C0.362311 17.3034 0.234253 17.1129 0.140552 16.8942C0.0468506 16.6756 0 16.4413 0 16.1915V5.39708C0 5.14721 0.0468506 4.91296 0.140552 4.69432C0.234253 4.47568 0.362311 4.28516 0.524727 4.12274C0.687142 3.96033 0.877668 3.83227 1.0963 3.73857C1.31494 3.64487 1.54919 3.59802 1.79906 3.59802H5.99688V2.39864C5.99688 2.22998 6.02811 2.07381 6.09058 1.93014C6.15304 1.78646 6.23737 1.66153 6.34357 1.55533C6.44976 1.44914 6.57782 1.36168 6.72774 1.29297C6.87767 1.22425 7.03383 1.19302 7.19625 1.19927H11.9938C12.1624 1.19927 12.3186 1.2305 12.4623 1.29297C12.6059 1.35544 12.7309 1.43977 12.8371 1.54596C12.9433 1.65216 13.0307 1.78021 13.0994 1.93014C13.1681 2.08006 13.1994 2.23623 13.1931 2.39864V3.59802H17.3909ZM7.19625 3.59802H11.9938V2.39864H7.19625V3.59802ZM4.7975 4.79739V16.7911H14.3925V4.79739H4.7975ZM1.19938 16.1915C1.19938 16.3539 1.25872 16.4944 1.37741 16.6131C1.4961 16.7318 1.63665 16.7911 1.79906 16.7911H3.59812V4.79739H1.79906C1.63665 4.79739 1.4961 4.85674 1.37741 4.97542C1.25872 5.09411 1.19938 5.23466 1.19938 5.39708V16.1915ZM17.9906 5.39708C17.9906 5.23466 17.9313 5.09411 17.8126 4.97542C17.6939 4.85674 17.5534 4.79739 17.3909 4.79739H15.5919V16.7911H17.3909C17.5534 16.7911 17.6939 16.7318 17.8126 16.6131C17.9313 16.4944 17.9906 16.3539 17.9906 16.1915V5.39708Z" fill="#F6F6F6"/>
</g>
<defs>
<clipPath id="clip0_503_999">
<rect width="19.19" height="19.19" fill="white"/>
</clipPath>
</defs>
</svg>
