<svg width="20" height="20" viewBox="0 0 20 20" fill="none" xmlns="http://www.w3.org/2000/svg">
<g clip-path="url(#clip0_503_1003)">
<path fill-rule="evenodd" clip-rule="evenodd" d="M3.62776 2.4775C3.38709 2.36933 3.1133 2.36118 2.86662 2.45485C2.61995 2.54852 2.42058 2.73634 2.31237 2.97699L0.160181 7.75598C0.0518803 7.9964 0.0434449 8.26998 0.136728 8.51662C0.23001 8.76326 0.417382 8.96279 0.657681 9.07137L2.14023 9.73901C2.25933 9.79279 2.38786 9.82258 2.51847 9.82669C2.64909 9.83079 2.77923 9.80912 2.90147 9.76293C3.02371 9.71673 3.13565 9.6469 3.23091 9.55744C3.32616 9.46797 3.40286 9.36062 3.45662 9.24151L5.6088 4.46153C5.7171 4.22111 5.72554 3.94753 5.63225 3.70089C5.53897 3.45425 5.3516 3.25472 5.1113 3.14614L3.62776 2.4775ZM1.86362 8.37586C1.94476 8.41245 2.03232 8.43269 2.12129 8.43544C2.21025 8.43819 2.29889 8.42339 2.38214 8.39188C2.46539 8.36038 2.54161 8.31278 2.60647 8.25182C2.67132 8.19085 2.72353 8.11771 2.76012 8.03657C2.7967 7.95542 2.81695 7.86787 2.8197 7.7789C2.82245 7.68993 2.80765 7.6013 2.77614 7.51805C2.74463 7.4348 2.69704 7.35858 2.63607 7.29372C2.57511 7.22887 2.50196 7.17666 2.42082 7.14007C2.25695 7.06618 2.07043 7.06042 1.9023 7.12405C1.73418 7.18768 1.59822 7.31549 1.52433 7.47937C1.45044 7.64324 1.44467 7.82976 1.5083 7.99788C1.57193 8.16601 1.69974 8.30197 1.86362 8.37586ZM18.9199 9.20171C19.0421 9.15534 19.1539 9.08535 19.2491 8.99575C19.3442 8.90614 19.4207 8.79867 19.4743 8.67948C19.5279 8.56029 19.5575 8.4317 19.5614 8.30108C19.5653 8.17045 19.5434 8.04033 19.497 7.91816L17.6413 3.01878C17.5951 2.89651 17.5251 2.78456 17.4356 2.68932C17.346 2.59409 17.2386 2.51743 17.1194 2.46375C17.0002 2.41006 16.8715 2.38039 16.7409 2.37643C16.6102 2.37248 16.48 2.39431 16.3578 2.44069L14.8384 3.01679C14.7162 3.06316 14.6044 3.13315 14.5093 3.22276C14.4141 3.31236 14.3376 3.41983 14.284 3.53902C14.2304 3.65822 14.2008 3.7868 14.1969 3.91743C14.193 4.04806 14.2149 4.17817 14.2613 4.30034L16.118 9.20072C16.2115 9.44742 16.3991 9.6469 16.6396 9.7553C16.8801 9.86371 17.1538 9.87217 17.4005 9.77881L18.9199 9.20171ZM15.9976 3.78394C15.9144 3.81549 15.8382 3.86313 15.7733 3.92414C15.7085 3.98514 15.6563 4.05832 15.6198 4.13949C15.5833 4.22066 15.5631 4.30823 15.5604 4.3972C15.5577 4.48618 15.5725 4.57481 15.6041 4.65804C15.6356 4.74128 15.6833 4.81748 15.7443 4.8823C15.8053 4.94713 15.8785 4.9993 15.9596 5.03584C16.0408 5.07238 16.1284 5.09258 16.2173 5.09528C16.3063 5.09797 16.3949 5.08312 16.4782 5.05157C16.6463 4.98784 16.7822 4.85994 16.856 4.69601C16.9298 4.53209 16.9354 4.34556 16.8717 4.17746C16.808 4.00936 16.6801 3.87346 16.5162 3.79966C16.3522 3.72586 16.1657 3.72021 15.9976 3.78394Z" fill="#F6F6F6"/>
<path fill-rule="evenodd" clip-rule="evenodd" d="M14.8105 4.08643H14.8185C14.8836 4.08075 14.947 4.06229 15.005 4.03211C15.063 4.00193 15.1145 3.96062 15.1566 3.91055C15.1986 3.86047 15.2304 3.8026 15.25 3.74025C15.2697 3.67789 15.2769 3.61228 15.2712 3.54714C15.2655 3.482 15.2471 3.41862 15.2169 3.36062C15.1867 3.30262 15.1454 3.25113 15.0953 3.20909C15.0453 3.16705 14.9874 3.13528 14.925 3.11561C14.8627 3.09593 14.7971 3.08873 14.7319 3.09441H14.724L14.6981 3.0974L14.6016 3.10735L14.2504 3.14118C13.9548 3.17103 13.5459 3.21779 13.0942 3.27749C12.2036 3.3949 11.1002 3.574 10.3778 3.81479C10.0276 3.93121 9.65744 4.15707 9.30322 4.41577C8.94402 4.67845 8.57189 4.99785 8.21568 5.32918C7.58347 5.92547 6.97951 6.55102 6.40578 7.20376C5.98887 7.67539 5.89236 8.42761 6.3819 8.96093C6.7003 9.3052 7.1978 9.74101 7.84256 9.93603C8.51617 10.138 9.29227 10.0594 10.0853 9.47037L11.0793 8.8286L11.0972 8.81765C11.2395 8.90422 11.4375 9.05347 11.6743 9.25147C11.933 9.46838 12.2136 9.7241 12.4753 9.96986C12.7723 10.2498 13.0642 10.5351 13.3509 10.8256L13.4056 10.8823L13.4195 10.8962L13.4245 10.9012L13.4832 10.9609L13.5578 10.9997C13.9588 11.1987 14.3996 11.127 14.7419 11.0116C15.0981 10.8922 15.4523 10.6892 15.7538 10.4893C16.1313 10.2353 16.4889 9.95285 16.8234 9.6445L16.8413 9.62858L16.8463 9.6236L16.8473 9.62261C16.8473 9.62261 16.7597 9.31416 16.4175 8.95397L16.1478 9.29227L15.92 9.94996L13.4245 10.9012L13.93 10.4475L13.6633 9.73405C13.4965 9.56979 13.328 9.40726 13.1578 9.2465C12.8892 8.99377 12.5927 8.72412 12.3121 8.4903C12.0405 8.26145 11.7579 8.04454 11.5221 7.91519C11.13 7.70027 10.746 7.85947 10.539 7.99379L9.51615 8.65447L9.50222 8.66442C8.94999 9.07834 8.49627 9.09426 8.12912 8.98382C7.73112 8.86442 7.37789 8.57388 7.11422 8.28732C7.03163 8.19777 7.00775 8.02563 7.15103 7.86345C7.70333 7.23467 8.28471 6.63203 8.89328 6.05752C9.23257 5.74211 9.57286 5.45057 9.89027 5.21874C10.2146 4.98193 10.4873 4.8277 10.6932 4.75905C11.3141 4.55209 12.33 4.38194 13.2245 4.26354C13.7137 4.19926 14.204 4.14387 14.6951 4.09737L14.7877 4.08842L14.8105 4.08643Z" fill="#F6F6F6"/>
<path d="M14.0563 10.126C13.9264 9.99425 13.7953 9.86357 13.6633 9.73394L13.93 10.4474L13.4245 10.9021L15.92 9.94985L16.1478 9.29315L16.4175 8.95485L16.1637 8.90112L16.1608 8.90311L16.1468 8.91605L16.0931 8.9658C15.8131 9.21844 15.5155 9.45086 15.2026 9.6613C14.9339 9.8404 14.6623 9.98965 14.4235 10.0693C14.2384 10.1319 14.123 10.1369 14.0563 10.126Z" fill="#F6F6F6"/>
<path fill-rule="evenodd" clip-rule="evenodd" d="M5.02175 5.04267L4.82574 4.58497L4.62972 4.12727L4.66952 4.11135L4.78196 4.06359C5.33361 3.82937 5.88752 3.6005 6.44361 3.37704C6.89526 3.1948 7.35039 3.02131 7.80875 2.85666C8.01074 2.78502 8.19879 2.72333 8.356 2.67855C8.49132 2.63875 8.66445 2.59497 8.80574 2.59497C8.93509 2.59497 9.0714 2.62482 9.18384 2.65467C9.30523 2.68751 9.43856 2.73129 9.57388 2.78104C9.84651 2.88054 10.154 3.00989 10.4385 3.13526C10.7704 3.28358 11.0995 3.43817 11.4256 3.59893L11.4912 3.63077L11.5092 3.63972L11.5151 3.64271C11.6332 3.70169 11.723 3.80516 11.7648 3.93037C11.8066 4.05558 11.797 4.19226 11.738 4.31035C11.679 4.42844 11.5756 4.51827 11.4503 4.56006C11.3251 4.60186 11.1885 4.59221 11.0704 4.53323L11.0654 4.53025L11.0495 4.52229L10.9878 4.49244C10.6725 4.33739 10.3543 4.18811 10.0336 4.04469C9.77097 3.92637 9.50449 3.81686 9.23459 3.71634C9.13349 3.67902 9.03092 3.64583 8.92713 3.61684C8.88822 3.60581 8.84868 3.59717 8.80872 3.59097L8.79977 3.59296C8.77987 3.59594 8.72713 3.60689 8.62863 3.63475C8.46395 3.68344 8.3007 3.73686 8.13909 3.79494C7.75303 3.93126 7.27841 4.11533 6.81375 4.3014C6.26386 4.52163 5.71625 4.74751 5.17101 4.97899L5.06056 5.02576L5.02175 5.04267ZM4.36804 4.78099C4.31625 4.65972 4.31473 4.52286 4.36379 4.40047C4.41286 4.27808 4.50851 4.18017 4.62972 4.12827L4.82574 4.58597L5.02175 5.04267C4.96166 5.06847 4.89706 5.08216 4.83166 5.08297C4.76627 5.08377 4.70136 5.07168 4.64064 5.04737C4.57992 5.02307 4.52459 4.98703 4.47782 4.94132C4.43104 4.89561 4.39374 4.84113 4.36804 4.78099ZM2.47455 8.72119C2.51943 8.67367 2.57323 8.63547 2.63287 8.60876C2.69251 8.58204 2.75684 8.56734 2.82216 8.56549C2.88749 8.56364 2.95254 8.57469 3.0136 8.59799C3.07466 8.62129 3.13053 8.65639 3.17802 8.70129L2.83574 9.06247L2.49445 9.42465C2.44694 9.37978 2.40874 9.32598 2.38202 9.26634C2.35531 9.20669 2.34061 9.14237 2.33876 9.07704C2.33691 9.01171 2.34795 8.94666 2.37125 8.8856C2.39455 8.82454 2.42966 8.76867 2.47455 8.72119ZM7.02171 12.0913L9.77089 13.1221C10.0392 13.2226 10.3307 13.2438 10.6107 13.1831C10.8907 13.1224 11.1474 12.9824 11.35 12.7798L13.4295 10.7002C13.5229 10.607 13.6496 10.5546 13.7816 10.5547C13.9136 10.5548 14.0402 10.6073 14.1335 10.7007C14.2268 10.7942 14.2791 10.9208 14.279 11.0528C14.2789 11.1848 14.2264 11.3114 14.133 11.4047L12.0534 13.4843C11.7156 13.8217 11.2879 14.0548 10.8212 14.1557C10.3545 14.2566 9.86868 14.2211 9.42164 14.0534L6.61575 13.0017L6.59286 12.9907C6.44073 12.9066 6.29624 12.8094 6.16103 12.7002C5.99984 12.5758 5.81079 12.4216 5.60682 12.2475C5.15012 11.857 4.69966 11.4593 4.2556 11.0545C3.71302 10.5616 3.17471 10.0641 2.64072 9.56196L2.53226 9.46047L2.49445 9.42465L2.83574 9.06247L3.17802 8.70129L3.21483 8.73611L3.3213 8.83661C3.85118 9.33455 4.38518 9.82809 4.92325 10.3172C5.38095 10.7321 5.85357 11.153 6.24959 11.4893C6.44859 11.6574 6.6247 11.8007 6.76698 11.9112C6.89832 12.0117 6.98091 12.0674 7.02171 12.0903M3.65164 14.2166C3.73622 14.1157 3.85733 14.0525 3.98843 14.0407C4.11954 14.029 4.24996 14.0697 4.35113 14.1539L5.30533 14.9499C5.51917 15.1284 5.7787 15.2435 6.05456 15.2822L7.28438 15.4553C7.35055 15.4626 7.41458 15.4831 7.47269 15.5155C7.5308 15.548 7.58181 15.5917 7.6227 15.6443C7.66359 15.6968 7.69352 15.757 7.71073 15.8213C7.72794 15.8855 7.73207 15.9526 7.72288 16.0186C7.71369 16.0845 7.69137 16.1479 7.65724 16.205C7.6231 16.2622 7.57785 16.3119 7.52416 16.3512C7.47046 16.3905 7.40943 16.4187 7.34466 16.434C7.27988 16.4493 7.2127 16.4515 7.14707 16.4404L5.91626 16.2683C5.45645 16.2037 5.02389 16.0117 4.66753 15.714L3.71333 14.918C3.6631 14.8761 3.62162 14.8247 3.59128 14.7668C3.56094 14.7088 3.54233 14.6455 3.5365 14.5803C3.53068 14.5152 3.53776 14.4495 3.55735 14.3871C3.57694 14.3247 3.60864 14.2667 3.65064 14.2166" fill="#F6F6F6"/>
</g>
<defs>
<clipPath id="clip0_503_1003">
<rect width="19.9" height="19.9" fill="white"/>
</clipPath>
</defs>
</svg>
