<svg width="64" height="64" viewBox="0 0 64 64" fill="none" xmlns="http://www.w3.org/2000/svg">
<path fill-rule="evenodd" clip-rule="evenodd" d="M52.9947 32.8002L31.5733 54.1282C28.7184 56.9155 24.8786 58.4633 20.8886 58.4351C16.8987 58.4069 13.0812 56.8048 10.266 53.9773C7.45076 51.1498 5.8654 47.3253 5.85455 43.3353C5.84369 39.3453 7.40822 35.5123 10.208 32.6695L31.6293 11.3415C34.4843 8.55411 38.3241 7.00631 42.3141 7.03456C46.304 7.06281 50.1215 8.66481 52.9367 11.4923C55.7519 14.3199 57.3373 18.1443 57.3482 22.1343C57.359 26.1243 55.7945 29.9574 52.9947 32.8002ZM49.2613 15.1522C47.4257 13.3111 44.9345 12.2736 42.3346 12.2676C39.7348 12.2616 37.2388 13.2876 35.3947 15.1202L13.9707 36.4482C12.1273 38.2835 11.0884 40.7759 11.0826 43.3771C11.0769 45.9784 12.1047 48.4754 13.94 50.3188C15.7753 52.1623 18.2677 53.2011 20.869 53.2069C23.4703 53.2126 25.9673 52.1848 27.8107 50.3495L49.232 29.0215C51.0739 27.1857 52.1119 24.6939 52.1179 22.0934C52.1239 19.4929 51.0974 16.9964 49.264 15.1522H49.2613Z" fill="#165FF1"/>
<path fill-rule="evenodd" clip-rule="evenodd" d="M21.648 22.731C22.148 22.231 22.8262 21.9502 23.5333 21.9502C24.2404 21.9502 24.9185 22.231 25.4186 22.731L41.552 38.8643C42.0377 39.3672 42.3065 40.0408 42.3004 40.74C42.2943 41.4392 42.0139 42.1081 41.5195 42.6025C41.025 43.0969 40.3562 43.3774 39.657 43.3834C38.9578 43.3895 38.2842 43.1207 37.7813 42.635L21.648 26.5016C21.148 26.0016 20.8672 25.3234 20.8672 24.6163C20.8672 23.9092 21.148 23.231 21.648 22.731Z" fill="#165FF1"/>
</svg>
