<svg width="64" height="64" viewBox="0 0 64 64" fill="none" xmlns="http://www.w3.org/2000/svg">
<path d="M58.6668 31.9997C58.6668 46.7277 46.7282 58.6663 32.0002 58.6663C17.2722 58.6663 5.3335 46.7277 5.3335 31.9997M22.6668 7.01301C25.6526 5.89987 28.8137 5.33088 32.0002 5.33301C35.2828 5.33301 38.4268 5.92768 41.3335 7.01301M20.0482 14.4877L21.4562 17.3277C21.6482 17.7223 22.1602 18.101 22.5922 18.173L25.1442 18.5997C26.7762 18.877 27.1602 20.069 25.9842 21.2477L24.0002 23.2477C23.8265 23.4444 23.6989 23.6775 23.627 23.9299C23.555 24.1823 23.5404 24.4476 23.5842 24.7063L24.1522 27.1837C24.6002 29.1437 23.5682 29.901 21.8482 28.877L19.4562 27.4503C19.2118 27.3223 18.94 27.2555 18.6642 27.2555C18.3883 27.2555 18.1165 27.3223 17.8722 27.4503L15.4802 28.877C13.7708 29.901 12.7308 29.1357 13.1788 27.1837L13.7468 24.7063C13.7906 24.4476 13.776 24.1823 13.704 23.9299C13.6321 23.6775 13.5045 23.4444 13.3308 23.2477L11.3468 21.2477C10.1788 20.069 10.5548 18.8743 12.1868 18.6023L14.7388 18.1757C14.9753 18.121 15.1977 18.0173 15.3916 17.8712C15.5854 17.7251 15.7464 17.5399 15.8642 17.3277L17.2722 14.4877C18.0402 12.949 19.2882 12.949 20.0482 14.4877ZM46.7148 14.4877L48.1228 17.3277C48.3148 17.7223 48.8268 18.101 49.2588 18.173L51.8108 18.5997C53.4428 18.877 53.8268 20.069 52.6508 21.2477L50.6668 23.2477C50.4931 23.4444 50.3656 23.6775 50.2936 23.9299C50.2216 24.1823 50.207 24.4476 50.2508 24.7063L50.8188 27.1837C51.2668 29.1437 50.2348 29.901 48.5148 28.877L46.1228 27.4503C45.8785 27.3223 45.6067 27.2555 45.3308 27.2555C45.055 27.2555 44.7832 27.3223 44.5388 27.4503L42.1468 28.877C40.4375 29.901 39.3975 29.1357 39.8455 27.1837L40.4135 24.7063C40.4573 24.4476 40.4427 24.1823 40.3707 23.9299C40.2987 23.6775 40.1712 23.4444 39.9975 23.2477L38.0135 21.2477C36.8455 20.069 37.2215 18.8743 38.8535 18.6023L41.4055 18.1757C41.6425 18.1213 41.8654 18.0178 42.0597 17.8717C42.254 17.7256 42.4155 17.5402 42.5335 17.3277L43.9388 14.4877C44.7068 12.949 45.9548 12.949 46.7148 14.4877Z" stroke="#F6F6F6" stroke-width="4" stroke-linecap="round" stroke-linejoin="round"/>
<path d="M21.3335 40C22.5755 41.6559 24.1859 43 26.0373 43.9257C27.8887 44.8514 29.9302 45.3333 32.0002 45.3333C34.0701 45.3333 36.1116 44.8514 37.963 43.9257C39.8144 43 41.4249 41.6559 42.6668 40" stroke="#F6F6F6" stroke-width="4" stroke-linecap="round" stroke-linejoin="round"/>
</svg>
