<svg width="64" height="64" viewBox="0 0 64 64" fill="none" xmlns="http://www.w3.org/2000/svg">
<path d="M24.6 59.7303C22.9717 59.9014 21.3359 59.9913 19.6986 59.9997C17.952 59.9997 17.5413 59.873 16.1293 59.7303C14.3026 59.5437 12.9293 58.0503 12.7826 56.2197L11.7866 43.7863C10.688 43.7357 8.36796 43.6797 7.50929 43.6263C5.37329 43.4917 3.77862 41.6463 4.02396 39.5197C4.59184 34.6773 5.64742 29.9046 7.17462 25.2743C7.85596 23.221 9.62796 21.7997 11.7853 21.621C13.6106 21.4663 16.2106 21.333 19.6986 21.333C23.1866 21.333 25.7866 21.4663 27.6106 21.6197C29.7653 21.7983 31.5386 23.2197 32.22 25.273C32.9501 27.4838 33.5726 29.7286 34.0853 31.9997M38.6666 38.6663C38.944 37.2783 39.5 35.7517 39.9866 34.5703C40.524 33.2637 41.6493 32.297 43.0533 32.1303C43.8102 32.0434 44.5714 31.9998 45.3333 31.9997C46.2093 31.9997 46.9746 32.0543 47.6133 32.1303C49.0173 32.297 50.1426 33.2637 50.68 34.5703C51.1666 35.7517 51.7226 37.277 52 38.6663" stroke="#F6F6F6" stroke-width="4" stroke-linecap="round" stroke-linejoin="round"/>
<path d="M28.3641 12.6667C28.3641 14.9652 27.451 17.1696 25.8257 18.7949C24.2004 20.4202 21.996 21.3333 19.6974 21.3333C17.3989 21.3333 15.1945 20.4202 13.5692 18.7949C11.9439 17.1696 11.0308 14.9652 11.0308 12.6667C11.0308 10.3681 11.9439 8.16372 13.5692 6.53841C15.1945 4.91309 17.3989 4 19.6974 4C21.996 4 24.2004 4.91309 25.8257 6.53841C27.451 8.16372 28.3641 10.3681 28.3641 12.6667ZM30.9601 42.8667C31.1454 40.9267 32.5374 39.4187 34.4734 39.1853C36.6414 38.9227 40.1001 38.6667 45.3334 38.6667C50.5668 38.6667 54.0268 38.9227 56.1934 39.1853C58.1294 39.4187 59.5214 40.9267 59.7068 42.8667C59.8601 44.4893 60.0001 46.6867 60.0001 49.3333C60.0001 51.98 59.8601 54.1773 59.7068 55.8C59.5214 57.74 58.1294 59.248 56.1934 59.4813C54.0254 59.744 50.5668 60 45.3334 60C40.1001 60 36.6401 59.7427 34.4734 59.4813C32.5374 59.248 31.1454 57.74 30.9601 55.8C30.7617 53.6502 30.6638 51.4923 30.6668 49.3333C30.6668 46.6867 30.8068 44.4893 30.9601 42.8667Z" stroke="#F6F6F6" stroke-width="4" stroke-linecap="round" stroke-linejoin="round"/>
</svg>
