<svg width="64" height="64" viewBox="0 0 64 64" fill="none" xmlns="http://www.w3.org/2000/svg">
<path fill-rule="evenodd" clip-rule="evenodd" d="M46.1599 60.5492C52.1732 60.7665 57.8852 57.2612 59.6212 51.1652C61.1092 45.9385 62.7279 38.2145 63.3159 28.1118C63.6626 22.1798 58.7959 17.3652 52.9092 17.6425C48.1639 17.8665 43.8479 18.2292 41.1692 18.4798L40.8892 12.9065C40.7106 9.30383 38.8266 5.0025 34.2506 3.96917C32.9994 3.6935 31.7339 3.48741 30.4599 3.35183C26.3266 2.8905 22.7959 5.55183 21.5066 9.1625L17.7466 19.6865C17.2989 19.475 16.8282 19.3162 16.3439 19.2132C14.6463 18.8533 12.9152 18.6745 11.1799 18.6798C9.13456 18.6798 7.39323 18.9172 6.01589 19.2132C2.68256 19.9305 0.942561 22.9238 0.859895 25.7598C0.728753 30.3911 0.664302 35.024 0.666561 39.6572C0.666561 45.7225 0.773228 50.5985 0.859895 53.5518C0.942561 56.3892 2.68123 59.3825 6.01589 60.0998C7.39189 60.3958 9.1359 60.6332 11.1799 60.6332C13.2239 60.6332 14.9679 60.3958 16.3439 60.0998C17.6199 59.8339 18.78 59.1734 19.6599 58.2118C19.963 58.2572 20.327 58.3092 20.7519 58.3678C22.1226 58.5585 24.1079 58.8185 26.5759 59.0945C31.5092 59.6478 38.3852 60.2692 46.1599 60.5492ZM21.5146 53.0892C22.8426 53.2745 24.7706 53.5252 27.1706 53.7958C32.0039 54.3372 38.7426 54.9465 46.3519 55.2212C50.2386 55.3612 53.5146 53.1412 54.4919 49.7065C55.8786 44.8318 57.4279 37.4932 57.9919 27.8038C58.1506 25.0838 55.9332 22.8412 53.1599 22.9718C46.5132 23.2852 40.7119 23.8758 39.2772 24.0292C38.8713 24.0723 38.4609 24.0321 38.071 23.9112C37.6812 23.7902 37.3201 23.5909 37.01 23.3255C36.6998 23.0602 36.447 22.7343 36.2672 22.3679C36.0873 22.0015 35.9841 21.6022 35.9639 21.1945L35.5639 13.1745C35.4439 10.7945 34.3452 9.45983 33.0759 9.17317C32.017 8.94069 30.946 8.76708 29.8679 8.65317C28.5079 8.50117 27.0972 9.36383 26.5279 10.9585L21.5386 24.9278L21.4586 25.1545C21.4799 25.3589 21.4941 25.5616 21.5012 25.7625C21.5866 28.7158 21.6946 33.5918 21.6946 39.6572C21.6946 45.4158 21.5972 50.1025 21.5146 53.0892ZM13.8479 47.5025C13.8479 46.7953 13.5669 46.117 13.0668 45.6169C12.5667 45.1168 11.8885 44.8358 11.1812 44.8358C10.474 44.8358 9.79571 45.1168 9.29561 45.6169C8.79551 46.117 8.51456 46.7953 8.51456 47.5025V50.1185C8.51456 50.8257 8.79551 51.504 9.29561 52.0041C9.79571 52.5042 10.474 52.7852 11.1812 52.7852C11.8885 52.7852 12.5667 52.5042 13.0668 52.0041C13.5669 51.504 13.8479 50.8257 13.8479 50.1185V47.5025Z" fill="#165FF1"/>
</svg>
