<svg width="64" height="64" viewBox="0 0 64 64" fill="none" xmlns="http://www.w3.org/2000/svg">
<path d="M32 56C45.2548 56 56 45.2548 56 32C56 18.7452 45.2548 8 32 8C18.7452 8 8 18.7452 8 32C8 45.2548 18.7452 56 32 56Z" stroke="white" stroke-width="5.33333" stroke-linecap="round" stroke-linejoin="round"/>
<path d="M41.2402 37.3333C40.3038 38.9552 38.9568 40.302 37.3349 41.2382C35.7129 42.1744 33.873 42.6671 32.0002 42.6667C30.1274 42.6671 28.2875 42.1744 26.6655 41.2382C25.0435 40.302 23.6966 38.9552 22.7602 37.3333M37.3335 26.6667L40.0002 24L42.6668 26.6667M26.6668 26.6667L24.0002 24L21.3335 26.6667" stroke="white" stroke-width="5.33333" stroke-linecap="round" stroke-linejoin="round"/>
</svg>
