<svg width="64" height="64" viewBox="0 0 64 64" fill="none" xmlns="http://www.w3.org/2000/svg">
<path d="M31.6801 38.6898H31.8201C34.8201 38.7698 37.2201 41.2098 37.2201 44.2098C37.2201 46.7698 35.4801 48.9098 33.1201 49.5498V51.7898C33.1201 52.5898 32.4801 53.2298 31.6801 53.2298C30.8801 53.2298 30.2401 52.5898 30.2401 51.7898V49.5498C29.0651 49.2335 28.027 48.5392 27.2859 47.574C26.5449 46.6089 26.1422 45.4266 26.1401 44.2098C26.1401 43.4098 26.7801 42.7698 27.5801 42.7698C28.3801 42.7698 29.0201 43.4098 29.0201 44.2098C29.0201 45.6898 30.2001 46.8698 31.6601 46.8698C33.1201 46.8698 34.3201 45.6698 34.3201 44.2098C34.3201 42.7498 33.1201 41.5498 31.6601 41.5498H31.5201C30.0814 41.5107 28.7145 40.9123 27.7099 39.8816C26.7054 38.8508 26.1422 37.4691 26.1401 36.0298C26.1401 33.4698 27.8801 31.3298 30.2401 30.6898V28.4498C30.2401 27.6498 30.8801 27.0098 31.6801 27.0098C32.4801 27.0098 33.1201 27.6498 33.1201 28.4498V30.6898C35.4801 31.3298 37.2201 33.4698 37.2201 36.0298C37.2201 36.8298 36.5801 37.4698 35.7801 37.4698C34.9801 37.4698 34.3401 36.8298 34.3401 36.0298C34.3401 34.5698 33.1401 33.3698 31.6801 33.3698C30.2201 33.3698 29.0201 34.5698 29.0201 36.0298C29.0201 37.4898 30.2201 38.6898 31.6801 38.6898Z" fill="#A47AFE"/>
<path d="M21.064 10.1999L26.636 16.7199L26.034 17.3919C14.566 19.9639 6 30.2059 6 42.4499C6 53.2139 14.736 61.9499 25.5 61.9499H37.84C48.604 61.9499 57.34 53.2159 57.34 42.4519C57.36 30.2059 48.794 19.9639 37.326 17.3919C37.3731 16.9692 37.2967 16.542 37.106 16.1619L41.846 10.7359L42.152 10.2639C42.5093 9.48454 42.6007 8.6094 42.4122 7.77304C42.2236 6.93668 41.7655 6.18543 41.1083 5.63483C40.4511 5.08422 39.6313 4.76475 38.7748 4.72556C37.9183 4.68636 37.0727 4.92961 36.368 5.41788L34.682 3.41788C34.3038 2.99465 33.8407 2.65585 33.3228 2.42358C32.8049 2.19131 32.2438 2.07077 31.6762 2.06983C31.1086 2.06889 30.5472 2.18756 30.0285 2.4181C29.5099 2.64865 29.0456 2.98591 28.666 3.40788L26.9 5.37988C26.1971 4.88145 25.3495 4.62851 24.4884 4.66018C23.6273 4.69185 22.8007 5.00637 22.1363 5.5551C21.4719 6.10382 21.0068 6.85617 20.813 7.69577C20.6192 8.53538 20.7074 9.41546 21.064 10.1999ZM28.662 12.9699L25.27 9.04988C26.0582 9.42891 26.9496 9.53636 27.8053 9.35546C28.661 9.17456 29.4327 8.71549 30 8.04988L31.6 5.97388L33.376 8.07788C33.9297 8.72184 34.6767 9.16963 35.5057 9.35452C36.3346 9.53941 37.2011 9.4515 37.976 9.10388L34.6 12.9699H28.662ZM10 42.4499C10 30.4739 19.704 20.7699 31.68 20.7699C43.656 20.7699 53.36 30.4739 53.34 42.4459V42.4499C53.3384 46.5602 51.7049 50.5018 48.7984 53.4083C45.8919 56.3148 41.9504 57.9483 37.84 57.9499H25.5C21.3896 57.9483 17.4481 56.3148 14.5416 53.4083C11.6351 50.5018 10.0016 46.5602 10 42.4499Z" fill="#A47AFE"/>
</svg>
