<svg width="64" height="64" viewBox="0 0 64 64" fill="none" xmlns="http://www.w3.org/2000/svg">
<path fill-rule="evenodd" clip-rule="evenodd" d="M54.0002 20.1922C52.9068 20.1922 52.0002 19.2855 52.0002 18.1922V15.1415C47.5548 19.4882 36.1015 28.9228 14.6082 36.0882C14.4078 36.159 14.1967 36.1951 13.9842 36.1948C13.5116 36.1913 13.0556 36.0206 12.6969 35.7129C12.3383 35.4052 12.1001 34.9805 12.0247 34.514C11.9493 34.0475 12.0415 33.5694 12.285 33.1644C12.5285 32.7594 12.9075 32.4537 13.3548 32.3015C34.1468 25.3628 45.2215 16.1362 49.2722 12.1948H46.0002C44.9068 12.1948 44.0002 11.2882 44.0002 10.1948C44.0002 9.10149 44.9068 8.19482 46.0002 8.19482H54.0002C55.0935 8.19482 56.0002 9.10149 56.0002 10.1948V18.1948C56.0002 19.2882 55.0935 20.1922 54.0002 20.1922ZM13.9842 36.1948H13.9948H13.9682H13.9842ZM52.6668 60.1948C51.2535 60.1948 50.4002 60.1948 49.5468 59.8482C48.4002 59.3682 47.4935 58.4615 47.0135 57.3148C46.6668 56.4615 46.6668 55.6082 46.6668 54.1948V30.1948C46.6668 28.7815 46.6668 27.9282 47.0135 27.0748C47.4935 25.9282 48.4002 25.0215 49.5468 24.5415C50.4002 24.1948 51.2535 24.1948 52.6668 24.1948C54.0802 24.1948 54.9335 24.1948 55.7868 24.5415C56.9335 25.0215 57.8402 25.9282 58.3202 27.0748C58.6668 27.9282 58.6668 28.7815 58.6668 30.1948V54.1948C58.6668 55.6082 58.6668 56.4615 58.3202 57.3148C57.8402 58.4615 56.9335 59.3682 55.7868 59.8482C54.9335 60.1948 54.0802 60.1948 52.6668 60.1948ZM52.6668 28.1948C51.9735 28.1948 51.2535 28.1948 51.0668 28.2482C50.9068 28.3015 50.8002 28.4348 50.7202 28.5948C50.6668 28.7548 50.6668 29.4748 50.6668 30.1948V54.1948C50.6668 54.8882 50.6668 55.6082 50.7202 55.7948C50.7735 55.9548 50.9068 56.0882 51.0668 56.1415C51.4135 56.2482 53.8935 56.2482 54.2668 56.1415C54.4268 56.0882 54.5335 55.9548 54.6135 55.7948C54.6668 55.6348 54.6668 54.9148 54.6668 54.1948V30.1948C54.6668 29.5015 54.6668 28.7815 54.6135 28.5948C54.5858 28.5145 54.5402 28.4416 54.4801 28.3815C54.4201 28.3215 54.3471 28.2759 54.2668 28.2482C54.1068 28.1948 53.3868 28.1948 52.6668 28.1948ZM34.0002 60.1948C32.5868 60.1948 31.7335 60.1948 30.8802 59.8482C29.7335 59.3682 28.8268 58.4615 28.3468 57.3148C28.0002 56.4615 28.0002 55.6082 28.0002 54.1948V39.5282C28.0002 38.1148 28.0002 37.2615 28.3468 36.4082C28.8268 35.2615 29.7335 34.3548 30.8802 33.8748C31.7335 33.5282 32.5868 33.5282 34.0002 33.5282C35.4135 33.5282 36.2668 33.5282 37.1202 33.8748C38.2668 34.3548 39.1735 35.2615 39.6535 36.4082C40.0002 37.2615 40.0002 38.1148 40.0002 39.5282V54.1948C40.0002 55.6082 40.0002 56.4615 39.6535 57.3148C39.1735 58.4615 38.2668 59.3682 37.1202 59.8482C36.2668 60.1948 35.4135 60.1948 34.0002 60.1948ZM34.0002 37.5282C33.3068 37.5282 32.5868 37.5282 32.4002 37.5815C32.2402 37.6348 32.1335 37.7682 32.0535 37.9282C32.0002 38.0882 32.0002 38.8082 32.0002 39.5282V54.1948C32.0002 54.8882 32.0002 55.6082 32.0535 55.7948C32.1068 55.9548 32.2402 56.0882 32.4002 56.1415C32.7468 56.2482 35.2268 56.2482 35.6002 56.1415C35.7602 56.0882 35.8668 55.9548 35.9468 55.7948C36.0002 55.6348 36.0002 54.9148 36.0002 54.1948V39.5282C36.0002 38.8348 36.0002 38.1148 35.9468 37.9282C35.9191 37.8479 35.8735 37.7749 35.8134 37.7149C35.7534 37.6548 35.6805 37.6092 35.6002 37.5815C35.4402 37.5282 34.7202 37.5282 34.0002 37.5282ZM12.2135 59.8482C13.0668 60.1948 13.9202 60.1948 15.3335 60.1948C16.7468 60.1948 17.6002 60.1948 18.4535 59.8482C19.6002 59.3682 20.5068 58.4615 20.9868 57.3148C21.3335 56.4615 21.3335 55.6082 21.3335 54.1948V46.1948C21.3335 44.7815 21.3335 43.9282 20.9868 43.0748C20.5068 41.9282 19.6002 41.0215 18.4535 40.5415C17.6002 40.1948 16.7468 40.1948 15.3335 40.1948C13.9202 40.1948 13.0668 40.1948 12.2135 40.5415C11.0668 41.0215 10.1602 41.9282 9.68016 43.0748C9.3335 43.9282 9.3335 44.7815 9.3335 46.1948V54.1948C9.3335 55.6082 9.3335 56.4615 9.68016 57.3148C10.1602 58.4615 11.0668 59.3682 12.2135 59.8482ZM13.7335 44.2482C13.9202 44.1948 14.6402 44.1948 15.3335 44.1948C16.0535 44.1948 16.7735 44.1948 16.9335 44.2482C17.0935 44.3015 17.2268 44.4348 17.2802 44.5948C17.3335 44.7815 17.3335 45.5015 17.3335 46.1948V54.1948C17.3335 54.9148 17.3335 55.6348 17.2802 55.7948C17.2002 55.9548 17.0935 56.0882 16.9335 56.1415C16.5602 56.2482 14.0802 56.2482 13.7335 56.1415C13.6532 56.1138 13.5803 56.0682 13.5202 56.0081C13.4602 55.948 13.4145 55.8751 13.3868 55.7948C13.3335 55.6082 13.3335 54.8882 13.3335 54.1948V46.1948C13.3335 45.4748 13.3335 44.7548 13.3868 44.5948C13.4668 44.4348 13.5735 44.3015 13.7335 44.2482Z" fill="#313131"/>
</svg>
