<svg width="20" height="20" viewBox="0 0 20 20" fill="none" xmlns="http://www.w3.org/2000/svg">
<path fill-rule="evenodd" clip-rule="evenodd" d="M16.1915 6.05436C15.8637 6.05436 15.5919 5.7825 15.5919 5.45467V4.53995C14.259 5.84327 10.8247 8.67219 4.3801 10.8207C4.32001 10.8419 4.25673 10.8527 4.193 10.8527C4.05131 10.8516 3.91458 10.8004 3.80703 10.7082C3.69949 10.6159 3.62808 10.4886 3.60547 10.3487C3.58286 10.2088 3.61051 10.0654 3.68351 9.94401C3.75651 9.82257 3.87016 9.73091 4.00429 9.68526C10.2386 7.60475 13.5593 4.83819 14.7739 3.65641H13.7928C13.465 3.65641 13.1931 3.38455 13.1931 3.05672C13.1931 2.72889 13.465 2.45703 13.7928 2.45703H16.1915C16.5194 2.45703 16.7912 2.72889 16.7912 3.05672V5.45547C16.7912 5.7833 16.5194 6.05436 16.1915 6.05436ZM4.193 10.8527H4.19619H4.1882H4.193ZM15.7918 18.0489C15.368 18.0489 15.1121 18.0489 14.8562 17.945C14.5124 17.801 14.2406 17.5292 14.0966 17.1854C13.9927 16.9295 13.9927 16.6736 13.9927 16.2498V9.05359C13.9927 8.62981 13.9927 8.37395 14.0966 8.11808C14.2406 7.77426 14.5124 7.5024 14.8562 7.35848C15.1121 7.25453 15.368 7.25453 15.7918 7.25453C16.2155 7.25453 16.4714 7.25453 16.7273 7.35848C17.0711 7.5024 17.3429 7.77426 17.4869 8.11808C17.5908 8.37395 17.5908 8.62981 17.5908 9.05359V16.2498C17.5908 16.6736 17.5908 16.9295 17.4869 17.1854C17.3429 17.5292 17.0711 17.801 16.7273 17.945C16.4714 18.0489 16.2155 18.0489 15.7918 18.0489ZM15.7918 8.45391C15.5839 8.45391 15.368 8.45391 15.312 8.4699C15.264 8.48589 15.232 8.52587 15.2081 8.57384C15.1921 8.62182 15.1921 8.83771 15.1921 9.05359V16.2498C15.1921 16.4577 15.1921 16.6736 15.2081 16.7296C15.224 16.7776 15.264 16.8175 15.312 16.8335C15.4159 16.8655 16.1596 16.8655 16.2715 16.8335C16.3195 16.8175 16.3515 16.7776 16.3754 16.7296C16.3914 16.6816 16.3914 16.4657 16.3914 16.2498V9.05359C16.3914 8.8457 16.3914 8.62981 16.3754 8.57384C16.3671 8.54977 16.3535 8.5279 16.3355 8.50989C16.3174 8.49188 16.2956 8.47821 16.2715 8.4699C16.2235 8.45391 16.0076 8.45391 15.7918 8.45391ZM10.1947 18.0489C9.77089 18.0489 9.51502 18.0489 9.25916 17.945C8.91534 17.801 8.64348 17.5292 8.49955 17.1854C8.39561 16.9295 8.39561 16.6736 8.39561 16.2498V11.8521C8.39561 11.4284 8.39561 11.1725 8.49955 10.9166C8.64348 10.5728 8.91534 10.3009 9.25916 10.157C9.51502 10.0531 9.77089 10.0531 10.1947 10.0531C10.6184 10.0531 10.8743 10.0531 11.1302 10.157C11.474 10.3009 11.7459 10.5728 11.8898 10.9166C11.9937 11.1725 11.9937 11.4284 11.9937 11.8521V16.2498C11.9937 16.6736 11.9937 16.9295 11.8898 17.1854C11.7459 17.5292 11.474 17.801 11.1302 17.945C10.8743 18.0489 10.6184 18.0489 10.1947 18.0489ZM10.1947 11.2524C9.98678 11.2524 9.77089 11.2524 9.71492 11.2684C9.66694 11.2844 9.63496 11.3244 9.61097 11.3724C9.59498 11.4204 9.59498 11.6362 9.59498 11.8521V16.2498C9.59498 16.4577 9.59498 16.6736 9.61097 16.7296C9.62697 16.7776 9.66694 16.8175 9.71492 16.8335C9.81886 16.8655 10.5625 16.8655 10.6744 16.8335C10.7224 16.8175 10.7544 16.7776 10.7784 16.7296C10.7944 16.6816 10.7944 16.4657 10.7944 16.2498V11.8521C10.7944 11.6442 10.7944 11.4284 10.7784 11.3724C10.7701 11.3483 10.7564 11.3264 10.7384 11.3084C10.7204 11.2904 10.6985 11.2767 10.6744 11.2684C10.6264 11.2524 10.4106 11.2524 10.1947 11.2524ZM3.66207 17.945C3.91794 18.0489 4.17381 18.0489 4.59759 18.0489C5.02136 18.0489 5.27723 18.0489 5.5331 17.945C5.87692 17.801 6.14878 17.5292 6.2927 17.1854C6.39665 16.9295 6.39665 16.6736 6.39665 16.2498V13.8511C6.39665 13.4273 6.39665 13.1714 6.2927 12.9156C6.14878 12.5718 5.87692 12.2999 5.5331 12.156C5.27723 12.052 5.02136 12.052 4.59759 12.052C4.17381 12.052 3.91794 12.052 3.66207 12.156C3.31825 12.2999 3.04639 12.5718 2.90247 12.9156C2.79852 13.1714 2.79852 13.4273 2.79852 13.8511V16.2498C2.79852 16.6736 2.79852 16.9295 2.90247 17.1854C3.04639 17.5292 3.31825 17.801 3.66207 17.945ZM4.11784 13.2674C4.17381 13.2514 4.38969 13.2514 4.59759 13.2514C4.81347 13.2514 5.02936 13.2514 5.07734 13.2674C5.12531 13.2834 5.16529 13.3234 5.18128 13.3713C5.19727 13.4273 5.19727 13.6432 5.19727 13.8511V16.2498C5.19727 16.4657 5.19727 16.6816 5.18128 16.7296C5.15729 16.7776 5.12531 16.8175 5.07734 16.8335C4.96539 16.8655 4.22178 16.8655 4.11784 16.8335C4.09376 16.8252 4.07189 16.8116 4.05388 16.7935C4.03587 16.7755 4.0222 16.7537 4.01389 16.7296C3.9979 16.6736 3.9979 16.4577 3.9979 16.2498V13.8511C3.9979 13.6352 3.9979 13.4193 4.01389 13.3713C4.03788 13.3234 4.06986 13.2834 4.11784 13.2674Z" fill="#24CF78"/>
</svg>
