<svg xmlns="http://www.w3.org/2000/svg" width="619" height="175" viewBox="0 0 619 175" fill="none"><path d="M42.37 0.190002L0 174.75H576.5L618.87 0.190002H42.37Z" fill="white"></path><path d="M106.35 58.87L105.78 61.96H89.26L76.81 116.23H73.06L85.6 61.96H69.08L69.65 58.87H106.35Z" fill="#231F20"></path><path d="M157.24 61.27C160.698 63.1344 163.527 65.9806 165.37 69.45C167.327 73.2137 168.307 77.4088 168.22 81.65C168.224 83.7796 168.033 85.9051 167.65 88C166.766 93.3872 164.696 98.5106 161.59 103C158.644 107.287 154.71 110.803 150.12 113.25C145.577 115.678 140.501 116.936 135.35 116.91C131.05 117.009 126.794 116.018 122.98 114.03C119.524 112.173 116.703 109.324 114.88 105.85C112.953 102.073 111.992 97.8787 112.08 93.64C112.074 91.4838 112.265 89.3316 112.65 87.21C113.53 81.8465 115.601 76.7483 118.71 72.29C121.663 68.0167 125.596 64.5124 130.18 62.07C134.723 59.6419 139.799 58.3839 144.95 58.41C149.223 58.3052 153.452 59.2894 157.24 61.27V61.27ZM131.97 64.85C127.922 66.9971 124.449 70.0834 121.84 73.85C118.973 77.9411 117.06 82.6224 116.24 87.55C115.902 89.4861 115.711 91.445 115.67 93.41C115.6 97.1374 116.485 100.821 118.24 104.11C119.827 107.086 122.264 109.523 125.24 111.11C128.445 112.756 132.008 113.58 135.61 113.51C140.022 113.517 144.369 112.442 148.27 110.38C152.319 108.235 155.793 105.148 158.4 101.38C161.239 97.2926 163.129 92.6219 163.93 87.71C164.246 85.8026 164.41 83.8733 164.42 81.94C164.511 78.2083 163.658 74.514 161.94 71.2C160.348 68.2275 157.912 65.7921 154.94 64.2C151.741 62.5259 148.17 61.6867 144.56 61.76C140.15 61.7504 135.806 62.8253 131.91 64.89" fill="#231F20"></path><path d="M226.61 58.87L226.04 61.96H209.53L197.07 116.23H193.32L205.87 61.96H189.35L189.92 58.87H226.61Z" fill="#231F20"></path><path d="M264.93 101.34H237.67L229.45 116.23H225.45L256.45 60.42H260.51L271.82 116.23H267.82L264.93 101.34ZM264.36 98.34L257.77 64.9L239.38 98.34H264.36Z" fill="#231F20"></path><path d="M292.75 113.22H314.15L313.67 116.23H288.61L302.22 58.87H305.88L292.75 113.22Z" fill="#231F20"></path><path d="M351.83 96.05L347.08 116.23H333.16L346.78 58.71H369.32C375.28 58.71 379.797 60.01 382.87 62.61C385.93 65.22 387.46 68.82 387.46 73.44C387.435 74.8019 387.302 76.1595 387.06 77.5C386.455 80.9708 385.032 84.2478 382.91 87.06C380.727 89.9057 377.876 92.1691 374.61 93.65C371.19 95.26 363.7 96.05 359.2 96.05H351.83ZM372.9 77.55C372.989 76.9302 373.042 76.3059 373.06 75.68C373.06 71.8867 370.647 69.99 365.82 69.99H358.74L356.14 84.99H363.24C368.78 84.99 372.01 82.52 372.93 77.58" fill="#231F20"></path><path d="M428.1 105.74H406.54L401.09 116.23H386.36L417.53 59.11H433.53L444.53 116.23H429.81L428.1 105.74ZM426.4 95.16L422.9 74.01L411.99 95.16H426.4Z" fill="#231F20"></path><path d="M492.91 109.48C490.885 111.819 488.336 113.645 485.47 114.81C482.09 116.197 478.463 116.877 474.81 116.81C468.19 116.81 463.037 115.197 459.35 111.97C455.663 108.743 453.793 104.39 453.74 98.91H468.54C468.412 99.8203 468.477 100.747 468.731 101.631C468.984 102.515 469.42 103.335 470.01 104.04C470.659 104.695 471.441 105.201 472.305 105.524C473.168 105.847 474.091 105.979 475.01 105.91C475.883 105.945 476.754 105.804 477.571 105.497C478.389 105.189 479.136 104.721 479.77 104.12C480.38 103.515 480.857 102.791 481.172 101.992C481.487 101.193 481.633 100.338 481.6 99.48C481.635 98.2156 481.2 96.983 480.38 96.02C479.521 95.0376 478.487 94.2237 477.33 93.62C476.11 92.97 474.33 92.19 472.08 91.26C469.495 90.2583 466.982 89.0788 464.56 87.73C462.583 86.5641 460.897 84.9637 459.63 83.05C458.218 80.785 457.521 78.147 457.63 75.48C457.626 74.1695 457.736 72.8613 457.96 71.57C458.338 69.4886 459.167 67.515 460.388 65.7876C461.61 64.0601 463.194 62.6207 465.03 61.57C469.331 59.0153 474.269 57.7323 479.27 57.87C486.05 57.87 491.137 59.4033 494.53 62.47C497.923 65.5367 499.7 69.7 499.86 74.96H484.86C484.956 74.1543 484.885 73.3376 484.653 72.5603C484.421 71.7829 484.032 71.0613 483.51 70.44C482.935 69.8601 482.241 69.4115 481.477 69.125C480.712 68.8384 479.894 68.7207 479.08 68.78C477.469 68.7178 475.892 69.2518 474.65 70.28C474.056 70.8147 473.591 71.4762 473.288 72.2154C472.985 72.9546 472.852 73.7525 472.9 74.55C472.875 75.7335 473.296 76.8831 474.08 77.77C474.921 78.706 475.941 79.4643 477.08 80C478.273 80.6 479.98 81.36 482.2 82.28C484.786 83.291 487.302 84.4737 489.73 85.82C491.722 86.9909 493.43 88.5894 494.73 90.5C496.217 92.7666 496.958 95.4413 496.85 98.15C496.852 99.4902 496.742 100.828 496.52 102.15C496.026 104.89 494.804 107.446 492.98 109.55" fill="#231F20"></path><path d="M549.87 109.48C547.845 111.819 545.296 113.645 542.43 114.81C539.05 116.196 535.423 116.877 531.77 116.81C525.15 116.81 519.997 115.197 516.31 111.97C512.623 108.743 510.75 104.39 510.69 98.91H525.5C525.373 99.8203 525.437 100.747 525.691 101.631C525.944 102.515 526.38 103.335 526.97 104.04C527.618 104.695 528.401 105.201 529.265 105.524C530.128 105.847 531.051 105.979 531.97 105.91C532.843 105.945 533.714 105.804 534.531 105.497C535.349 105.189 536.096 104.721 536.73 104.12C537.34 103.515 537.817 102.791 538.132 101.992C538.447 101.193 538.593 100.338 538.56 99.48C538.59 98.2163 538.156 96.9854 537.34 96.02C536.496 95.0424 535.479 94.2289 534.34 93.62C533.12 92.97 531.34 92.19 529.09 91.26C526.503 90.256 523.987 89.0766 521.56 87.73C519.588 86.561 517.906 84.9611 516.64 83.05C515.228 80.785 514.531 78.147 514.64 75.48C514.638 74.17 514.745 72.8622 514.96 71.57C515.342 69.4886 516.173 67.5155 517.396 65.7884C518.619 64.0613 520.204 62.6217 522.04 61.57C526.341 59.0153 531.279 57.7323 536.28 57.87C543.06 57.87 548.147 59.4033 551.54 62.47C554.933 65.5367 556.71 69.7 556.87 74.96H541.87C541.962 74.1544 541.89 73.3386 541.658 72.5618C541.426 71.7849 541.039 71.0631 540.52 70.44C539.945 69.8601 539.251 69.4115 538.487 69.125C537.722 68.8384 536.904 68.7207 536.09 68.78C534.476 68.7191 532.896 69.2528 531.65 70.28C531.058 70.816 530.594 71.4778 530.291 72.2166C529.988 72.9555 529.855 73.7528 529.9 74.55C529.88 75.7327 530.3 76.8805 531.08 77.77C531.925 78.7015 532.944 79.4591 534.08 80C535.28 80.6 536.99 81.36 539.21 82.28C541.796 83.291 544.312 84.4737 546.74 85.82C548.73 86.9939 550.437 88.5917 551.74 90.5C553.227 92.7666 553.968 95.4413 553.86 98.15C553.862 99.4902 553.751 100.828 553.53 102.15C553.028 104.887 551.806 107.441 549.99 109.55" fill="#231F20"></path></svg>