<svg width="64" height="64" viewBox="0 0 64 64" fill="none" xmlns="http://www.w3.org/2000/svg">
<path fill-rule="evenodd" clip-rule="evenodd" d="M11.6673 7.96811C10.8932 7.62022 10.0127 7.59402 9.2194 7.89527C8.42607 8.19652 7.78488 8.80055 7.43686 9.57452L0.51526 24.9441C0.166957 25.7173 0.139828 26.5972 0.439833 27.3904C0.739838 28.1836 1.34244 28.8253 2.11526 29.1745L6.88326 31.3217C7.26629 31.4947 7.67965 31.5905 8.09972 31.6037C8.51978 31.6169 8.93833 31.5472 9.33147 31.3986C9.7246 31.25 10.0846 31.0255 10.391 30.7378C10.6973 30.45 10.944 30.1048 11.1169 29.7217L18.0385 14.3489C18.3868 13.5757 18.4139 12.6958 18.1139 11.9026C17.8139 11.1094 17.2113 10.4677 16.4385 10.1185L11.6673 7.96811ZM5.99366 26.9377C6.25462 27.0554 6.53621 27.1205 6.82233 27.1293C7.10846 27.1382 7.39353 27.0906 7.66125 26.9892C7.92898 26.8879 8.17414 26.7348 8.38271 26.5388C8.59128 26.3427 8.7592 26.1075 8.87686 25.8465C8.99452 25.5856 9.05964 25.304 9.06848 25.0178C9.07732 24.7317 9.02972 24.4466 8.92839 24.1789C8.82706 23.9112 8.674 23.666 8.47793 23.4575C8.28186 23.2489 8.04662 23.081 7.78566 22.9633C7.25862 22.7257 6.65877 22.7071 6.11806 22.9118C5.57736 23.1164 5.14009 23.5275 4.90246 24.0545C4.66483 24.5816 4.64629 25.1814 4.85093 25.7221C5.05557 26.2628 5.46662 26.7001 5.99366 26.9377ZM60.8481 29.5937C61.241 29.4446 61.6007 29.2195 61.9067 28.9313C62.2126 28.6431 62.4588 28.2975 62.6311 27.9142C62.8035 27.5308 62.8986 27.1173 62.9112 26.6972C62.9237 26.2771 62.8533 25.8586 62.7041 25.4657L56.7361 9.70891C56.5872 9.31568 56.3624 8.95563 56.0743 8.64935C55.7863 8.34306 55.4407 8.09654 55.0573 7.92388C54.674 7.75121 54.2603 7.65579 53.8401 7.64307C53.4198 7.63034 53.0012 7.70056 52.6081 7.84972L47.7217 9.70252C47.3287 9.85165 46.969 10.0767 46.6631 10.3649C46.3571 10.6531 46.1109 10.9987 45.9386 11.3821C45.7662 11.7654 45.6711 12.1789 45.6586 12.599C45.6461 13.0191 45.7164 13.4376 45.8657 13.8305L51.8369 29.5905C52.1375 30.3839 52.7408 31.0255 53.5143 31.3741C54.2878 31.7228 55.1681 31.7499 55.9617 31.4497L60.8481 29.5937ZM51.4497 12.1697C51.182 12.2712 50.9369 12.4244 50.7284 12.6206C50.52 12.8168 50.3522 13.0522 50.2346 13.3132C50.1171 13.5742 50.0522 13.8559 50.0435 14.142C50.0348 14.4282 50.0826 14.7132 50.1841 14.9809C50.2855 15.2486 50.4388 15.4937 50.635 15.7022C50.8312 15.9106 51.0665 16.0784 51.3275 16.1959C51.5886 16.3135 51.8702 16.3784 52.1564 16.3871C52.4425 16.3958 52.7276 16.348 52.9953 16.2465C53.5359 16.0416 53.9729 15.6302 54.2103 15.103C54.4476 14.5758 54.4658 13.9759 54.2609 13.4353C54.0559 12.8947 53.6446 12.4576 53.1174 12.2203C52.5902 11.983 51.9903 11.9648 51.4497 12.1697Z" fill="#24CF78"/>
<path fill-rule="evenodd" clip-rule="evenodd" d="M47.6321 13.1428H47.6577C47.8672 13.1245 48.071 13.0651 48.2576 12.9681C48.4441 12.871 48.6097 12.7382 48.7449 12.5771C48.8801 12.416 48.9823 12.2299 49.0456 12.0294C49.1088 11.8289 49.132 11.6178 49.1137 11.4084C49.0954 11.1989 49.0361 10.995 48.939 10.8085C48.842 10.6219 48.7091 10.4563 48.5481 10.3211C48.387 10.1859 48.2009 10.0838 48.0004 10.0205C47.7998 9.95723 47.5888 9.93407 47.3793 9.95235H47.3537L47.2705 9.96195L46.9601 9.99395L45.8305 10.1028C44.8801 10.1988 43.5649 10.3492 42.1121 10.5412C39.2481 10.9188 35.6993 11.4948 33.3761 12.2692C32.2497 12.6436 31.0593 13.37 29.9201 14.202C28.7649 15.0468 27.5681 16.074 26.4225 17.1396C24.3893 19.0573 22.4469 21.0691 20.6017 23.1684C19.2609 24.6852 18.9505 27.1043 20.5249 28.8195C21.5489 29.9268 23.1489 31.3284 25.2225 31.9556C27.3889 32.6052 29.8849 32.3524 32.4353 30.458L35.6321 28.394L35.6897 28.3588C36.1473 28.6372 36.7841 29.1172 37.5457 29.754C38.3777 30.4516 39.2801 31.274 40.1217 32.0644C41.0769 32.9646 42.0157 33.8821 42.9377 34.8164L43.1137 34.9988L43.1585 35.0436L43.1745 35.0596L43.3633 35.2516L43.6033 35.3764C44.8929 36.0164 46.3105 35.786 47.4113 35.4148C48.5569 35.0308 49.6961 34.378 50.6657 33.7348C51.8797 32.9179 53.0297 32.0096 54.1057 31.018L54.1633 30.9668L54.1793 30.9508L54.1825 30.9475C54.1825 30.9475 53.9009 29.9555 52.8001 28.7971L51.9329 29.8852L51.2001 32.0004L43.1745 35.0596L44.8001 33.6004L43.9425 31.306C43.4061 30.7777 42.8642 30.255 42.3169 29.738C41.4529 28.9252 40.4993 28.058 39.5969 27.306C38.7233 26.57 37.8145 25.8724 37.0561 25.4564C35.7953 24.7652 34.5601 25.2772 33.8945 25.7092L30.6049 27.834L30.5601 27.866C28.7841 29.1972 27.3249 29.2484 26.1441 28.8932C24.8641 28.5092 23.7281 27.5748 22.8801 26.6532C22.6145 26.3652 22.5377 25.8116 22.9985 25.29C24.7748 23.2677 26.6445 21.3296 28.6017 19.482C29.6929 18.4676 30.7873 17.53 31.8081 16.7844C32.8513 16.0228 33.7281 15.5268 34.3905 15.306C36.3873 14.6404 39.6545 14.0932 42.5313 13.7124C44.1045 13.5056 45.6813 13.3275 47.2609 13.178L47.5585 13.1492L47.6321 13.1428Z" fill="#24CF78"/>
<path d="M45.2063 32.5666C44.7883 32.143 44.367 31.7227 43.9423 31.3058L44.7999 33.6002L43.1743 35.0626L51.1999 32.0002L51.9327 29.8882L52.7999 28.8002L51.9839 28.6274L51.9743 28.6338L51.9295 28.6754L51.7567 28.8354C50.8562 29.6479 49.8992 30.3954 48.8927 31.0722C48.0287 31.6482 47.1551 32.1282 46.3871 32.3842C45.7919 32.5858 45.4207 32.6018 45.2063 32.5666Z" fill="#24CF78"/>
<path fill-rule="evenodd" clip-rule="evenodd" d="M16.1504 16.2177L15.52 14.7457L14.8896 13.2737L15.0176 13.2225L15.3792 13.0689C17.1533 12.3156 18.9347 11.5796 20.7232 10.8609C22.1757 10.2748 23.6395 9.71684 25.1136 9.1873C25.7632 8.9569 26.368 8.7585 26.8736 8.6145C27.3088 8.4865 27.8656 8.3457 28.32 8.3457C28.736 8.3457 29.1744 8.4417 29.536 8.5377C29.9264 8.6433 30.3552 8.7841 30.7904 8.9441C31.6672 9.2641 32.656 9.6801 33.5712 10.0833C34.6386 10.5603 35.6969 11.0575 36.7456 11.5745L36.9568 11.6769L37.0144 11.7057L37.0336 11.7153C37.4134 11.905 37.7022 12.2378 37.8367 12.6404C37.9711 13.0431 37.94 13.4827 37.7504 13.8625C37.5607 14.2423 37.2279 14.5312 36.8252 14.6656C36.4225 14.8 35.983 14.769 35.6032 14.5793L35.5872 14.5697L35.536 14.5441L35.3376 14.4481C34.3235 13.9495 33.3004 13.4694 32.2688 13.0081C31.4242 12.6276 30.5672 12.2754 29.6992 11.9521C29.374 11.8321 29.0442 11.7253 28.7104 11.6321C28.5852 11.5967 28.4581 11.5689 28.3296 11.5489L28.3008 11.5553C28.2368 11.5649 28.0672 11.6001 27.7504 11.6897C27.2207 11.8463 26.6957 12.0181 26.176 12.2049C24.9344 12.6433 23.408 13.2353 21.9136 13.8337C20.1451 14.542 18.3839 15.2684 16.6304 16.0129L16.2752 16.1633L16.1504 16.2177ZM14.048 15.3761C13.8814 14.9861 13.8765 14.5459 14.0343 14.1523C14.1921 13.7587 14.4997 13.4438 14.8896 13.2769L15.52 14.7489L16.1504 16.2177C15.9571 16.3007 15.7493 16.3447 15.539 16.3473C15.3287 16.3499 15.1199 16.311 14.9247 16.2328C14.7294 16.1547 14.5514 16.0388 14.401 15.8918C14.2506 15.7447 14.1306 15.5695 14.048 15.3761ZM7.95836 28.0481C8.10268 27.8953 8.27569 27.7724 8.46751 27.6865C8.65933 27.6006 8.8662 27.5533 9.0763 27.5474C9.2864 27.5414 9.49561 27.5769 9.69198 27.6519C9.88835 27.7268 10.068 27.8397 10.2208 27.9841L9.11996 29.1457L8.02236 30.3105C7.86956 30.1662 7.74669 29.9932 7.66078 29.8013C7.57486 29.6095 7.52758 29.4027 7.52164 29.1926C7.51569 28.9825 7.5512 28.7733 7.62614 28.5769C7.70107 28.3805 7.81396 28.2008 7.95836 28.0481ZM22.5824 38.8865L31.424 42.2017C32.2868 42.525 33.2245 42.5931 34.125 42.3979C35.0255 42.2027 35.8508 41.7525 36.5024 41.1009L43.1904 34.4129C43.4908 34.1129 43.8981 33.9445 44.3227 33.9448C44.7473 33.9451 45.1544 34.1141 45.4544 34.4145C45.7544 34.7149 45.9228 35.1223 45.9225 35.5468C45.9222 35.9714 45.7532 36.3785 45.4528 36.6785L38.7648 43.3665C37.6784 44.4517 36.3027 45.2014 34.8018 45.5259C33.301 45.8505 31.7384 45.7363 30.3008 45.1969L21.2768 41.8145L21.2032 41.7793C20.7139 41.5089 20.2492 41.1962 19.8144 40.8449C19.296 40.4449 18.688 39.9489 18.032 39.3889C16.5632 38.1331 15.1145 36.854 13.6864 35.5521C11.9414 33.9671 10.2101 32.367 8.49276 30.7521L8.14396 30.4257L8.02236 30.3105L9.11996 29.1457L10.2208 27.9841L10.3392 28.0961L10.6816 28.4193C12.3857 30.0207 14.1031 31.608 15.8336 33.1809C17.3056 34.5153 18.8256 35.8689 20.0992 36.9505C20.7392 37.4913 21.3056 37.9521 21.7632 38.3073C22.1856 38.6305 22.4512 38.8097 22.5824 38.8833M11.744 45.7217C12.016 45.3973 12.4055 45.194 12.8271 45.1562C13.2488 45.1184 13.6682 45.2493 13.9936 45.5201L17.0624 48.0801C17.7501 48.6543 18.5848 49.0245 19.472 49.1489L23.4272 49.7057C23.6399 49.729 23.8459 49.7948 24.0328 49.8992C24.2197 50.0036 24.3837 50.1444 24.5152 50.3133C24.6467 50.4822 24.743 50.6757 24.7983 50.8825C24.8537 51.0893 24.867 51.3051 24.8374 51.5171C24.8078 51.7291 24.7361 51.933 24.6263 52.1167C24.5165 52.3005 24.371 52.4604 24.1983 52.5869C24.0256 52.7134 23.8293 52.8039 23.621 52.8532C23.4127 52.9025 23.1966 52.9095 22.9856 52.8737L19.0272 52.3201C17.5484 52.1124 16.1572 51.495 15.0112 50.5377L11.9424 47.9777C11.7808 47.8429 11.6474 47.6776 11.5498 47.4912C11.4523 47.3049 11.3924 47.1011 11.3737 46.8915C11.3549 46.682 11.3777 46.4708 11.4407 46.2701C11.5037 46.0693 11.6057 45.883 11.7408 45.7217" fill="#24CF78"/>
</svg>
